<svg width="139" height="34" viewBox="0 0 139 34" fill="none" xmlns="http://www.w3.org/2000/svg">
<path d="M10.326 16.1323C8.23091 12.5242 2.79352 15.9321 0 18.0872C0 18.1757 2.21929 19.7086 4.63924 20.7932C5.50944 21.1832 6.73438 21.6958 7.48264 21.6958C9.42813 21.8462 12.0801 19.1529 10.326 16.1323Z" fill="#2B3EF4"/>
<path d="M21.674 19.899C23.7691 23.507 29.2065 20.0991 32 17.944C32 17.8556 29.7807 16.3226 27.3608 15.2381C26.4906 14.8481 25.2656 14.3354 24.5174 14.3354C22.5719 14.185 19.9199 16.8783 21.674 19.899Z" fill="#2B3EF4"/>
<path d="M17.9669 12.3744C21.5581 10.2694 18.1661 4.8066 16.021 2C15.933 2 14.4072 4.22968 13.3277 6.66095C12.9395 7.53523 12.4293 8.7659 12.4293 9.51767C12.2795 11.4723 14.9603 14.1366 17.9669 12.3744Z" fill="#2B3EF4"/>
<path d="M13.9941 23.6256C10.4028 25.7306 13.7949 31.1934 15.9399 34C16.028 34 17.5537 31.7703 18.6332 29.339C19.0214 28.4648 19.5317 27.2341 19.5317 26.4823C19.6814 24.5277 17.0006 21.8634 13.9941 23.6256Z" fill="#2B3EF4"/>
<ellipse cx="15.8635" cy="17.7866" rx="1.94549" ry="1.95459" fill="#2B3EF4"/>
<path d="M11.9719 12.525C12.6908 13.2663 13.9426 15.3849 13.6281 15.6928C13.3135 16.0007 11.1953 14.7686 10.4764 14.0273C9.75759 13.286 8.96352 11.4805 9.27809 11.1726C9.59266 10.8646 11.253 11.7837 11.9719 12.525Z" fill="#2B3EF4"/>
<path d="M21.2751 13.8723C20.5367 14.5939 18.456 15.88 18.1719 15.5866C17.8877 15.2931 19.1488 13.2002 19.8872 12.4785C20.6255 11.7568 22.3888 10.9247 22.6729 11.2182C22.9571 11.5117 22.0134 13.1506 21.2751 13.8723Z" fill="#2B3EF4"/>
<path d="M12.0305 23.4955C12.7493 22.6759 14.0012 20.3337 13.6867 19.9932C13.3721 19.6528 11.2539 21.0151 10.535 21.8346C9.81619 22.6542 9.02212 24.6503 9.33669 24.9908C9.65125 25.3312 11.3116 24.3151 12.0305 23.4955Z" fill="#2B3EF4"/>
<path d="M21.3337 22.0064C20.5953 21.2085 18.5146 19.7867 18.2305 20.1111C17.9463 20.4356 19.2074 22.7495 19.9458 23.5474C20.6841 24.3453 22.4473 25.2652 22.7315 24.9407C23.0157 24.6163 22.072 22.8043 21.3337 22.0064Z" fill="#2B3EF4"/>
<path d="M41 26V8H42.8375V24.2375H51.3875V26H41ZM59.2311 26.375C57.9144 26.375 56.7727 26.0833 55.8061 25.5C54.8477 24.9167 54.1019 24.0958 53.5686 23.0375C53.0352 21.9792 52.7686 20.7375 52.7686 19.3125C52.7686 17.8375 53.0311 16.5625 53.5561 15.4875C54.0811 14.4125 54.8186 13.5833 55.7686 13C56.7269 12.4167 57.8561 12.125 59.1561 12.125C60.4894 12.125 61.6269 12.4333 62.5686 13.05C63.5102 13.6583 64.2227 14.5333 64.7061 15.675C65.1894 16.8167 65.4102 18.1792 65.3686 19.7625H63.4936V19.1125C63.4602 17.3625 63.0811 16.0417 62.3561 15.15C61.6394 14.2583 60.5894 13.8125 59.2061 13.8125C57.7561 13.8125 56.6436 14.2833 55.8686 15.225C55.1019 16.1667 54.7186 17.5083 54.7186 19.25C54.7186 20.95 55.1019 22.2708 55.8686 23.2125C56.6436 24.1458 57.7394 24.6125 59.1561 24.6125C60.1227 24.6125 60.9644 24.3917 61.6811 23.95C62.4061 23.5 62.9769 22.8542 63.3936 22.0125L65.1061 22.675C64.5727 23.85 63.7852 24.7625 62.7436 25.4125C61.7102 26.0542 60.5394 26.375 59.2311 26.375ZM54.0686 19.7625V18.225H64.3811V19.7625H54.0686ZM77.5264 26V19.1125C77.5264 18.3625 77.4555 17.675 77.3139 17.05C77.1722 16.4167 76.943 15.8667 76.6264 15.4C76.318 14.925 75.9139 14.5583 75.4139 14.3C74.9222 14.0417 74.3222 13.9125 73.6139 13.9125C72.9639 13.9125 72.3889 14.025 71.8889 14.25C71.3972 14.475 70.9805 14.8 70.6389 15.225C70.3055 15.6417 70.0514 16.15 69.8764 16.75C69.7014 17.35 69.6139 18.0333 69.6139 18.8L68.3139 18.5125C68.3139 17.1292 68.5555 15.9667 69.0389 15.025C69.5222 14.0833 70.1889 13.3708 71.0389 12.8875C71.8889 12.4042 72.8639 12.1625 73.9639 12.1625C74.7722 12.1625 75.4764 12.2875 76.0764 12.5375C76.6847 12.7875 77.1972 13.125 77.6139 13.55C78.0389 13.975 78.3805 14.4625 78.6389 15.0125C78.8972 15.5542 79.0847 16.1333 79.2014 16.75C79.318 17.3583 79.3764 17.9667 79.3764 18.575V26H77.5264ZM67.7639 26V12.5H69.4264V15.825H69.6139V26H67.7639ZM87.7844 26.375C86.526 26.375 85.451 26.0625 84.5594 25.4375C83.6677 24.8042 82.9844 23.95 82.5094 22.875C82.0344 21.8 81.7969 20.5875 81.7969 19.2375C81.7969 17.8958 82.0302 16.6875 82.4969 15.6125C82.9719 14.5375 83.651 13.6875 84.5344 13.0625C85.4177 12.4375 86.476 12.125 87.7094 12.125C88.976 12.125 90.0427 12.4333 90.9094 13.05C91.776 13.6667 92.4302 14.5125 92.8719 15.5875C93.3219 16.6542 93.5469 17.8708 93.5469 19.2375C93.5469 20.5792 93.326 21.7917 92.8844 22.875C92.4427 23.95 91.7927 24.8042 90.9344 25.4375C90.076 26.0625 89.026 26.375 87.7844 26.375ZM87.9719 24.6625C88.9302 24.6625 89.7219 24.4292 90.3469 23.9625C90.9719 23.4958 91.4385 22.8542 91.7469 22.0375C92.0552 21.2125 92.2094 20.2792 92.2094 19.2375C92.2094 18.1792 92.0552 17.2458 91.7469 16.4375C91.4385 15.6208 90.9719 14.9833 90.3469 14.525C89.7302 14.0667 88.951 13.8375 88.0094 13.8375C87.0427 13.8375 86.2427 14.075 85.6094 14.55C84.976 15.025 84.5052 15.6708 84.1969 16.4875C83.8969 17.3042 83.7469 18.2208 83.7469 19.2375C83.7469 20.2625 83.901 21.1875 84.2094 22.0125C84.526 22.8292 84.9969 23.475 85.6219 23.95C86.2469 24.425 87.0302 24.6625 87.9719 24.6625ZM92.2094 26V15.8375H92.0094V8H93.8594V26H92.2094ZM103.004 26.375C101.662 26.375 100.516 26.0708 99.5662 25.4625C98.6162 24.8542 97.887 24.0125 97.3787 22.9375C96.8704 21.8625 96.6162 20.6292 96.6162 19.2375C96.6162 17.8208 96.8745 16.5792 97.3912 15.5125C97.9079 14.4458 98.6412 13.6167 99.5912 13.025C100.55 12.425 101.687 12.125 103.004 12.125C104.354 12.125 105.504 12.4292 106.454 13.0375C107.412 13.6375 108.141 14.475 108.641 15.55C109.15 16.6167 109.404 17.8458 109.404 19.2375C109.404 20.6542 109.15 21.9 108.641 22.975C108.133 24.0417 107.4 24.875 106.441 25.475C105.483 26.075 104.337 26.375 103.004 26.375ZM103.004 24.6125C104.504 24.6125 105.62 24.1167 106.354 23.125C107.087 22.125 107.454 20.8292 107.454 19.2375C107.454 17.6042 107.083 16.3042 106.341 15.3375C105.608 14.3708 104.495 13.8875 103.004 13.8875C101.995 13.8875 101.162 14.1167 100.504 14.575C99.8537 15.025 99.3662 15.6542 99.0412 16.4625C98.7245 17.2625 98.5662 18.1875 98.5662 19.2375C98.5662 20.8625 98.9412 22.1667 99.6912 23.15C100.441 24.125 101.545 24.6125 103.004 24.6125ZM112.161 26V12.5H113.811V15.75L113.486 15.325C113.636 14.925 113.832 14.5583 114.074 14.225C114.315 13.8833 114.578 13.6042 114.861 13.3875C115.211 13.0792 115.619 12.8458 116.086 12.6875C116.553 12.5208 117.024 12.425 117.499 12.4C117.974 12.3667 118.407 12.4 118.799 12.5V14.225C118.307 14.1 117.769 14.0708 117.186 14.1375C116.603 14.2042 116.065 14.4375 115.574 14.8375C115.124 15.1875 114.786 15.6083 114.561 16.1C114.336 16.5833 114.186 17.1 114.111 17.65C114.036 18.1917 113.999 18.7292 113.999 19.2625V26H112.161ZM124.52 26.375C123.503 26.375 122.649 26.1917 121.957 25.825C121.274 25.4583 120.761 24.9708 120.42 24.3625C120.078 23.7542 119.907 23.0917 119.907 22.375C119.907 21.6417 120.053 21.0167 120.345 20.5C120.645 19.975 121.049 19.5458 121.557 19.2125C122.074 18.8792 122.67 18.625 123.345 18.45C124.028 18.2833 124.782 18.1375 125.607 18.0125C126.441 17.8792 127.253 17.7667 128.045 17.675C128.845 17.575 129.545 17.4792 130.145 17.3875L129.495 17.7875C129.52 16.4542 129.261 15.4667 128.72 14.825C128.178 14.1833 127.236 13.8625 125.895 13.8625C124.97 13.8625 124.186 14.0708 123.545 14.4875C122.911 14.9042 122.466 15.5625 122.207 16.4625L120.42 15.9375C120.728 14.7292 121.349 13.7917 122.282 13.125C123.216 12.4583 124.428 12.125 125.92 12.125C127.153 12.125 128.199 12.3583 129.057 12.825C129.924 13.2833 130.536 13.95 130.895 14.825C131.061 15.2167 131.17 15.6542 131.22 16.1375C131.27 16.6208 131.295 17.1125 131.295 17.6125V26H129.657V22.6125L130.132 22.8125C129.674 23.9708 128.961 24.8542 127.995 25.4625C127.028 26.0708 125.87 26.375 124.52 26.375ZM124.732 24.7875C125.591 24.7875 126.341 24.6333 126.982 24.325C127.624 24.0167 128.141 23.5958 128.532 23.0625C128.924 22.5208 129.178 21.9125 129.295 21.2375C129.395 20.8042 129.449 20.3292 129.457 19.8125C129.466 19.2875 129.47 18.8958 129.47 18.6375L130.17 19C129.545 19.0833 128.866 19.1667 128.132 19.25C127.407 19.3333 126.691 19.4292 125.982 19.5375C125.282 19.6458 124.649 19.775 124.082 19.925C123.699 20.0333 123.328 20.1875 122.97 20.3875C122.611 20.5792 122.316 20.8375 122.082 21.1625C121.857 21.4875 121.745 21.8917 121.745 22.375C121.745 22.7667 121.841 23.1458 122.032 23.5125C122.232 23.8792 122.549 24.1833 122.982 24.425C123.424 24.6667 124.007 24.7875 124.732 24.7875Z" fill="black"/>
</svg>
